{"glyphs":{"\r":{"ha":0,"x_min":0,"x_max":0,"o":""}," ":{"ha":357,"x_min":0,"x_max":0,"o":""},"\n":{"ha":0,"x_min":0,"x_max":0,"o":""},"A":{"ha":818,"x_min":-12,"x_max":829,"o":"m 32 296 q 81 436 56 356 q 128 595 107 517 q 167 737 150 674 q 189 826 183 800 q 213 915 200 878 q 249 976 226 951 q 310 1012 272 1000 q 408 1024 347 1024 q 506 1012 468 1024 q 567 976 543 1000 q 603 914 590 951 q 629 826 617 876 q 651 737 635 800 q 689 595 667 674 q 736 436 711 517 q 785 296 761 356 q 821 178 813 226 q 817 96 829 129 q 772 42 804 63 q 688 8 740 21 q 614 -1 649 -1 q 513 47 547 -1 q 467 210 478 94 l 351 210 q 305 47 340 94 q 203 -1 269 -1 q 129 8 168 -1 q 45 42 78 21 q 0 96 13 63 q -4 178 -12 129 q 32 296 4 226 m 443 429 q 426 557 435 494 q 408 664 417 619 q 390 557 399 619 q 374 429 382 494 l 443 429 z "},"B":{"ha":751,"x_min":13,"x_max":744,"o":"m 692 790 q 676 703 692 740 q 635 642 660 667 q 581 603 611 617 q 524 585 551 589 q 624 550 582 575 q 692 488 665 525 q 732 403 719 450 q 744 301 744 356 q 719 165 744 222 q 651 72 694 108 q 547 17 607 35 q 418 0 488 0 l 189 0 q 98 11 135 0 q 41 51 61 22 q 17 128 21 79 q 24 251 13 176 q 35 345 31 293 q 42 453 39 397 q 48 564 46 508 q 51 668 50 619 q 51 754 51 717 q 51 813 51 792 q 67 920 50 879 q 115 984 83 961 q 196 1015 147 1007 q 308 1024 244 1024 q 594 967 496 1024 q 692 790 692 911 m 376 783 q 327 755 336 783 q 318 668 318 726 q 363 654 339 654 q 410 678 393 654 q 428 733 428 703 q 412 774 428 764 q 376 783 396 783 m 332 353 q 375 349 351 350 q 419 355 399 349 q 453 374 439 361 q 467 411 467 388 q 432 474 467 449 q 332 490 397 499 l 332 353 z "},"C":{"ha":750,"x_min":8,"x_max":747,"o":"m 436 753 q 424 792 433 781 q 399 804 414 804 q 360 783 378 804 q 328 724 342 761 q 308 636 315 686 q 301 528 301 586 q 322 392 301 432 q 374 351 342 351 q 409 363 393 351 q 440 403 425 375 q 611 488 493 497 q 719 436 692 479 q 747 324 747 393 q 719 184 747 244 q 643 83 692 124 q 527 21 594 42 q 381 0 460 0 q 229 24 297 0 q 112 103 161 49 q 35 246 63 158 q 8 460 8 333 q 35 687 8 583 q 110 865 61 790 q 231 982 160 940 q 393 1024 303 1024 q 499 1009 446 1024 q 595 967 553 994 q 665 899 638 939 q 692 806 692 858 q 683 750 692 778 q 656 701 674 722 q 613 666 639 679 q 551 653 586 653 q 526 654 544 653 q 489 665 508 656 q 454 694 469 674 q 436 753 439 715 z "},"D":{"ha":757,"x_min":13,"x_max":744,"o":"m 308 1024 q 476 1002 406 1024 q 594 943 546 981 q 672 856 643 906 q 717 749 701 806 q 739 631 733 692 q 744 511 744 569 q 718 253 744 353 q 642 98 692 154 q 519 21 592 42 q 357 0 447 0 l 189 0 q 98 11 135 0 q 41 51 61 22 q 17 128 21 79 q 24 251 13 176 q 35 345 31 293 q 42 453 39 397 q 48 564 46 508 q 51 668 50 619 q 51 754 51 717 q 51 813 51 792 q 67 920 50 879 q 115 984 83 961 q 196 1015 147 1007 q 308 1024 244 1024 m 382 783 q 338 752 354 783 q 322 643 322 721 q 324 576 322 618 q 327 490 325 533 q 331 408 329 446 q 332 353 332 371 q 376 354 351 350 q 423 379 401 358 q 459 442 444 400 q 474 558 474 485 q 468 640 474 600 q 451 713 463 681 q 423 764 440 744 q 382 783 406 783 z "},"E":{"ha":690,"x_min":13,"x_max":689,"o":"m 24 251 q 35 345 31 293 q 42 453 39 397 q 48 564 46 508 q 51 668 50 619 q 51 754 51 717 q 51 813 51 792 q 67 920 50 879 q 117 984 83 961 q 201 1015 150 1007 q 321 1024 253 1024 q 483 1014 419 1024 q 584 988 547 1004 q 635 948 621 971 q 650 897 650 925 q 645 854 650 879 q 630 807 640 829 q 606 769 619 785 q 572 753 592 753 q 539 765 556 753 q 492 787 524 776 q 425 797 460 797 q 371 788 392 797 q 338 760 350 778 q 322 719 326 743 q 318 668 318 696 l 465 668 q 544 638 514 668 q 574 557 574 608 q 544 478 574 508 q 465 449 514 449 l 329 449 q 328 393 324 417 q 343 354 333 369 q 380 331 358 335 q 428 326 401 326 l 460 326 q 491 333 478 326 q 515 347 504 339 q 538 360 526 354 q 563 367 549 367 q 583 363 571 367 q 622 334 603 354 q 656 286 640 314 q 680 225 671 258 q 689 157 689 192 q 681 99 689 128 q 649 49 672 71 q 585 14 626 28 q 478 0 543 0 l 189 0 q 98 11 135 0 q 41 51 61 22 q 17 128 21 79 q 24 251 13 176 z "},"F":{"ha":640,"x_min":13,"x_max":650,"o":"m 24 251 q 35 345 31 293 q 42 453 39 397 q 48 564 46 508 q 51 668 50 619 q 51 754 51 717 q 51 813 51 792 q 67 920 50 879 q 117 984 83 961 q 201 1015 150 1007 q 321 1024 253 1024 q 483 1014 419 1024 q 584 988 547 1004 q 635 948 621 971 q 650 897 650 925 q 645 854 650 879 q 630 807 640 829 q 606 769 619 785 q 572 753 592 753 q 539 765 556 753 q 492 787 524 776 q 425 797 460 797 q 371 788 392 797 q 338 760 350 778 q 322 719 326 743 q 318 668 318 696 l 465 668 q 544 638 514 668 q 574 557 574 608 q 544 478 574 508 q 465 449 514 449 l 329 449 q 340 345 333 396 q 353 251 346 294 q 360 128 364 176 q 335 51 356 79 q 279 11 315 22 q 189 0 243 0 q 98 11 135 0 q 41 51 61 22 q 17 128 21 79 q 24 251 13 176 z "},"G":{"ha":754,"x_min":8,"x_max":747,"o":"m 436 753 q 424 792 433 781 q 399 804 414 804 q 360 783 378 804 q 328 724 342 761 q 308 636 315 686 q 301 528 301 586 q 326 392 301 432 q 413 351 350 351 q 455 360 433 351 q 481 401 476 368 l 456 401 q 377 431 407 401 q 347 510 347 460 q 377 590 347 560 q 456 621 407 621 l 606 621 q 684 587 656 621 q 726 507 713 553 q 744 416 740 461 q 747 350 747 371 q 719 195 747 261 q 643 86 692 129 q 527 22 594 43 q 381 0 460 0 q 229 24 297 0 q 112 103 161 49 q 35 246 63 158 q 8 460 8 333 q 35 687 8 583 q 110 865 61 790 q 231 982 160 940 q 393 1024 303 1024 q 499 1009 446 1024 q 595 967 553 994 q 665 899 638 939 q 692 806 692 858 q 683 750 692 778 q 656 701 674 722 q 613 666 639 679 q 551 653 586 653 q 526 654 544 653 q 489 665 508 656 q 454 694 469 674 q 436 753 439 715 z "},"H":{"ha":863,"x_min":13,"x_max":849,"o":"m 340 361 q 346 303 343 332 q 353 251 349 275 q 360 128 364 176 q 335 51 356 79 q 279 11 315 22 q 189 0 243 0 q 98 11 135 0 q 41 51 61 22 q 17 128 21 79 q 24 251 13 176 q 35 345 31 293 q 42 453 39 397 q 48 564 46 508 q 51 668 50 619 q 51 754 51 717 q 51 813 51 792 q 58 919 50 878 q 82 983 65 960 q 125 1016 99 1007 q 189 1025 151 1025 q 251 1016 225 1025 q 294 984 278 1007 q 319 920 311 961 q 325 814 326 879 q 324 758 325 794 q 325 678 324 722 q 339 642 325 656 q 375 629 353 629 l 488 629 q 524 642 510 629 q 538 678 538 656 l 538 813 q 544 919 536 878 q 568 983 551 960 q 611 1016 585 1007 q 675 1025 638 1025 q 738 1016 711 1025 q 781 984 764 1007 q 804 920 797 961 q 810 814 811 879 q 810 755 810 793 q 811 668 810 717 q 815 564 813 619 q 819 453 817 508 q 827 345 822 397 q 838 251 832 293 q 845 128 849 176 q 822 51 842 79 q 765 11 801 22 q 675 0 729 0 q 583 11 621 0 q 526 51 546 22 q 501 128 506 79 q 508 251 497 176 q 516 303 514 275 q 521 361 518 332 q 511 397 524 383 q 476 410 499 410 l 385 410 q 350 397 363 410 q 340 361 338 383 z "},"I":{"ha":376,"x_min":13,"x_max":364,"o":"m 24 251 q 35 345 31 293 q 42 453 39 397 q 48 564 46 508 q 51 668 50 619 q 51 754 51 717 q 51 813 51 792 q 58 919 50 878 q 82 983 65 960 q 125 1016 99 1007 q 189 1025 151 1025 q 251 1016 225 1025 q 294 984 278 1007 q 319 920 311 961 q 325 814 326 879 q 325 755 325 793 q 326 668 325 717 q 328 564 326 619 q 334 453 331 508 q 342 345 338 397 q 353 251 346 293 q 360 128 364 176 q 335 51 356 79 q 279 11 315 22 q 189 0 243 0 q 98 11 135 0 q 41 51 61 22 q 17 128 21 79 q 24 251 13 176 z "},"J":{"ha":625,"x_min":-10,"x_max":617,"o":"m 301 396 q 315 501 313 442 q 317 621 318 561 q 314 735 317 681 q 311 824 311 789 q 317 924 310 885 q 342 985 325 963 q 384 1017 358 1008 q 447 1025 410 1025 q 510 1016 483 1025 q 553 983 536 1007 q 578 918 571 960 q 585 810 586 876 q 585 725 585 781 q 587 607 585 669 q 592 484 589 544 q 601 385 596 424 q 593 213 617 286 q 521 93 569 140 q 406 23 472 46 q 268 0 339 0 q 190 7 238 0 q 99 38 143 14 q 22 106 54 61 q -10 229 -10 151 q 20 353 -10 306 q 89 419 50 401 q 121 426 104 426 q 163 411 146 426 q 194 377 179 396 q 222 342 208 358 q 254 326 236 326 q 263 327 257 326 q 274 334 268 328 q 288 355 281 340 q 301 396 296 369 z "},"K":{"ha":888,"x_min":13,"x_max":896,"o":"m 24 251 q 35 345 31 293 q 42 453 39 397 q 48 564 46 508 q 51 668 50 619 q 51 754 51 717 q 51 813 51 792 q 58 919 50 878 q 82 983 65 960 q 125 1016 99 1007 q 189 1025 151 1025 q 251 1016 225 1025 q 294 984 278 1007 q 319 920 311 961 q 325 814 326 879 q 324 760 325 794 q 325 683 324 726 q 393 788 353 732 q 483 894 433 844 q 590 976 533 943 q 708 1008 647 1008 q 806 975 765 1008 q 842 926 831 956 q 847 861 854 896 q 806 789 839 826 q 708 715 774 751 q 578 628 646 681 q 597 544 586 590 q 629 452 608 499 q 685 363 650 406 q 779 288 721 319 q 858 224 832 258 q 890 158 885 190 q 884 96 896 125 q 849 47 872 67 q 770 8 822 26 q 658 -11 718 -11 q 596 -4 628 -11 q 535 20 564 3 q 482 65 507 38 q 440 135 457 93 q 403 276 417 192 q 383 442 389 360 q 360 415 371 426 q 338 390 349 403 q 344 317 340 351 q 353 251 349 282 q 360 128 364 176 q 335 51 356 79 q 279 11 315 22 q 189 0 243 0 q 98 11 135 0 q 41 51 61 22 q 17 128 21 79 q 24 251 13 176 z "},"L":{"ha":678,"x_min":13,"x_max":689,"o":"m 343 354 q 376 328 350 331 q 428 326 401 326 l 460 326 q 491 333 478 326 q 515 347 504 339 q 538 360 526 354 q 563 367 549 367 q 583 363 571 367 q 622 334 603 354 q 656 286 640 314 q 680 225 671 258 q 689 157 689 192 q 681 99 689 128 q 649 49 672 71 q 585 14 626 28 q 478 0 543 0 l 189 0 q 98 11 135 0 q 41 51 61 22 q 17 128 21 79 q 24 251 13 176 q 35 345 31 293 q 42 453 39 397 q 48 564 46 508 q 51 668 50 619 q 51 754 51 717 q 51 813 51 792 q 58 919 50 878 q 82 983 65 960 q 125 1016 99 1007 q 189 1025 151 1025 q 251 1017 225 1025 q 294 985 278 1008 q 319 924 311 963 q 325 824 326 885 q 322 734 325 789 q 319 616 319 679 q 324 485 319 553 q 343 354 329 417 z "},"M":{"ha":1058,"x_min":13,"x_max":1046,"o":"m 24 251 q 35 345 31 293 q 42 453 39 397 q 48 564 46 508 q 51 668 50 619 q 51 754 51 717 q 51 813 51 792 q 58 919 50 878 q 82 983 65 960 q 125 1016 99 1007 q 189 1025 151 1025 q 264 1022 235 1025 q 314 1007 293 1019 q 353 968 335 994 q 394 894 371 942 q 415 854 401 881 q 447 795 429 828 q 485 725 464 763 q 528 650 506 688 q 571 725 550 688 q 610 795 592 763 q 642 854 628 828 q 663 894 656 881 q 704 968 686 942 q 743 1007 722 994 q 794 1022 764 1019 q 869 1025 824 1025 q 932 1016 906 1025 q 976 983 958 1007 q 1001 919 993 960 q 1007 813 1008 878 q 1007 754 1007 792 q 1008 668 1007 717 q 1010 564 1008 619 q 1016 453 1013 508 q 1024 345 1019 397 q 1035 251 1028 293 q 1042 128 1046 176 q 1017 51 1038 79 q 960 11 997 22 q 869 0 924 0 q 778 11 815 0 q 722 51 742 22 q 699 128 703 79 q 706 251 694 176 q 722 324 710 282 q 749 413 735 367 q 776 507 764 460 q 789 593 788 554 q 731 533 754 569 q 688 456 707 497 q 653 374 669 415 q 620 300 638 333 q 581 246 603 267 q 528 225 558 225 q 470 246 493 225 q 430 300 447 267 q 398 374 413 333 q 367 456 383 415 q 327 533 350 497 q 269 593 304 569 q 283 507 271 554 q 308 413 294 460 q 335 324 322 367 q 353 251 349 282 q 360 128 364 176 q 335 51 356 79 q 279 11 315 22 q 189 0 243 0 q 98 11 135 0 q 41 51 61 22 q 17 128 21 79 q 24 251 13 176 z "},"N":{"ha":863,"x_min":13,"x_max":849,"o":"m 24 251 q 35 345 31 293 q 42 453 39 397 q 48 564 46 508 q 51 668 50 619 q 51 754 51 717 q 51 813 51 792 q 58 919 50 878 q 82 983 65 960 q 125 1016 99 1007 q 189 1025 151 1025 q 234 1019 210 1025 q 283 1000 258 1014 q 330 963 307 986 q 369 906 353 940 q 393 849 381 883 q 424 768 406 815 q 468 658 442 721 q 535 513 494 594 q 537 590 536 544 q 538 681 538 636 q 538 763 538 726 q 538 813 538 800 q 544 919 536 878 q 568 983 551 960 q 611 1016 585 1007 q 675 1025 638 1025 q 738 1016 711 1025 q 781 984 764 1007 q 804 920 797 961 q 810 814 811 879 q 810 755 810 793 q 811 668 810 717 q 815 564 813 619 q 819 453 817 508 q 827 345 822 397 q 838 251 832 293 q 845 128 849 176 q 822 51 842 79 q 765 11 801 22 q 675 0 729 0 q 593 15 628 0 q 533 60 558 31 q 489 133 508 90 q 450 229 469 175 q 426 294 443 253 q 390 381 410 335 q 352 472 371 428 q 321 544 333 515 q 326 476 322 518 q 335 391 331 435 q 345 309 340 347 q 353 251 350 271 q 360 128 364 176 q 335 51 356 79 q 279 11 315 22 q 189 0 243 0 q 98 11 135 0 q 41 51 61 22 q 17 128 21 79 q 24 251 13 176 z "},"O":{"ha":807,"x_min":8,"x_max":799,"o":"m 8 431 q 35 653 8 546 q 112 842 61 760 q 236 974 163 925 q 403 1024 310 1024 q 571 974 497 1024 q 695 842 644 925 q 772 653 746 760 q 799 431 799 546 q 772 234 799 315 q 695 101 746 153 q 571 24 644 49 q 403 0 497 0 q 236 24 310 0 q 112 101 163 49 q 35 234 61 153 q 8 431 8 315 m 301 540 q 329 393 301 435 q 403 351 357 351 q 478 394 450 351 q 506 544 506 436 q 499 646 506 599 q 478 728 492 693 q 446 784 464 764 q 404 804 428 804 q 362 783 381 804 q 329 725 343 761 q 308 641 315 689 q 301 540 301 593 z "},"P":{"ha":690,"x_min":13,"x_max":692,"o":"m 692 719 q 668 574 692 632 q 606 480 644 515 q 522 430 568 444 q 429 415 475 415 q 361 423 393 415 q 306 442 329 431 q 335 344 325 393 q 353 251 346 294 q 360 128 364 176 q 335 51 356 79 q 279 11 315 22 q 189 0 243 0 q 98 11 135 0 q 41 51 61 22 q 17 128 21 79 q 24 251 13 176 q 35 345 31 293 q 42 453 39 397 q 48 564 46 508 q 51 668 50 619 q 51 754 51 717 q 51 813 51 792 q 67 920 50 879 q 115 984 83 961 q 196 1015 147 1007 q 308 1024 244 1024 q 473 1008 401 1024 q 593 958 544 993 q 667 864 642 922 q 692 719 692 806 m 382 783 q 347 769 360 783 q 328 733 335 756 q 320 683 322 711 q 318 625 318 654 q 363 610 338 610 q 410 638 393 610 q 428 711 428 665 q 424 749 428 735 q 413 770 419 763 q 397 781 406 778 q 382 783 389 783 z "},"Q":{"ha":803,"x_min":7,"x_max":797,"o":"m 7 431 q 33 653 7 546 q 110 842 60 760 q 235 974 161 925 q 401 1024 308 1024 q 569 974 496 1024 q 694 842 643 925 q 771 653 744 760 q 797 431 797 546 q 773 267 797 340 q 706 140 749 193 q 604 58 663 88 q 478 24 546 28 q 503 16 485 19 q 543 10 521 13 q 586 4 565 7 q 617 1 607 1 q 699 -21 668 -1 q 743 -69 729 -40 q 755 -133 757 -99 q 740 -200 753 -168 q 707 -257 728 -232 q 660 -292 686 -282 q 594 -301 636 -301 q 510 -289 557 -301 q 421 -242 463 -276 q 349 -149 379 -208 q 311 6 318 -89 q 86 128 165 26 q 7 431 7 229 m 300 540 q 328 393 300 435 q 401 351 356 351 q 476 394 449 351 q 504 544 504 436 q 497 646 504 599 q 476 728 490 693 q 444 784 463 764 q 403 804 426 804 q 360 783 379 804 q 328 725 342 761 q 307 641 314 689 q 300 540 300 593 z "},"R":{"ha":796,"x_min":13,"x_max":808,"o":"m 692 747 q 642 578 692 636 q 515 511 593 519 q 565 472 546 500 q 601 411 583 444 q 643 344 619 378 q 707 285 667 310 q 769 226 744 261 q 801 156 793 192 q 798 88 808 119 q 758 38 788 56 q 688 13 736 26 q 588 -1 640 -1 q 529 4 558 -1 q 476 24 500 10 q 433 63 451 39 q 404 124 414 88 q 398 182 399 147 q 397 255 397 217 q 394 332 397 293 q 382 400 392 371 q 369 426 376 417 q 354 440 361 436 q 340 446 347 444 q 329 449 333 447 q 340 345 333 396 q 353 251 346 294 q 360 128 364 176 q 335 51 356 79 q 279 11 315 22 q 189 0 243 0 q 98 11 135 0 q 41 51 61 22 q 17 128 21 79 q 24 251 13 176 q 35 345 31 293 q 42 453 39 397 q 48 564 46 508 q 51 668 50 619 q 51 754 51 717 q 51 813 51 792 q 67 920 50 879 q 115 984 83 961 q 196 1015 147 1007 q 308 1024 244 1024 q 473 1009 401 1024 q 593 962 544 994 q 667 876 642 929 q 692 747 692 824 m 376 783 q 327 755 336 783 q 318 668 318 726 q 363 654 339 654 q 410 678 393 654 q 428 733 428 703 q 412 774 428 764 q 376 783 396 783 z "},"S":{"ha":738,"x_min":6,"x_max":725,"o":"m 725 358 q 696 210 725 276 q 616 97 667 144 q 497 25 565 50 q 350 0 429 0 q 217 21 279 0 q 107 83 154 42 q 33 184 60 124 q 6 324 6 244 q 33 436 6 393 q 142 488 61 479 q 313 403 260 497 q 344 363 328 375 q 381 351 361 351 q 417 361 400 351 q 433 390 433 371 q 405 433 433 417 q 333 463 376 449 q 240 497 290 478 q 147 545 190 515 q 76 622 104 575 q 47 742 47 669 q 76 867 47 814 q 153 954 106 919 q 264 1006 201 989 q 392 1024 326 1024 q 511 1009 453 1024 q 615 967 569 994 q 687 899 660 939 q 714 806 714 858 q 705 750 714 778 q 678 701 696 722 q 635 666 661 679 q 574 653 608 653 q 549 654 567 653 q 511 665 531 656 q 476 694 492 674 q 457 753 460 715 q 444 792 454 781 q 415 804 435 804 q 363 784 386 804 q 340 740 340 764 q 369 698 340 714 q 440 667 397 682 q 533 634 483 653 q 625 582 582 615 q 697 495 668 549 q 725 358 725 442 z "},"T":{"ha":722,"x_min":-15,"x_max":736,"o":"m 226 715 q 203 780 219 763 q 168 797 188 797 q 130 787 149 797 q 96 765 111 776 q 63 753 78 753 q 28 769 43 753 q 4 807 14 785 q -10 854 -6 829 q -15 897 -15 879 q 39 988 -15 953 q 226 1024 93 1024 l 496 1024 q 682 988 628 1024 q 736 897 736 953 q 731 854 736 879 q 717 807 726 829 q 692 769 707 785 q 658 753 678 753 q 625 765 644 753 q 591 787 610 776 q 553 797 572 797 q 518 780 533 797 q 496 715 503 763 q 499 597 497 654 q 503 482 500 539 q 513 368 507 425 q 528 251 518 311 q 535 128 539 176 q 510 51 531 79 q 454 11 490 22 q 364 0 418 0 l 358 0 q 267 11 304 0 q 211 51 231 22 q 188 128 192 79 q 194 251 183 176 q 219 482 214 371 q 226 715 225 593 z "},"U":{"ha":788,"x_min":6,"x_max":783,"o":"m 460 490 q 464 565 463 519 q 466 657 465 610 q 467 747 467 704 q 467 813 467 790 q 473 919 465 878 q 497 983 481 960 q 540 1016 514 1007 q 604 1025 567 1025 q 667 1016 640 1025 q 710 984 693 1007 q 734 920 726 961 q 740 814 742 879 q 741 727 740 783 q 744 606 742 671 q 751 476 746 542 q 764 363 756 411 q 763 175 783 249 q 692 59 742 101 q 568 1 642 17 q 407 -15 494 -15 q 237 1 315 -15 q 105 61 158 18 q 28 178 51 104 q 24 367 6 253 q 37 478 32 414 q 44 606 42 542 q 47 726 46 671 q 47 813 47 782 q 53 919 46 878 q 78 983 61 960 q 121 1016 94 1007 q 185 1025 147 1025 q 247 1016 221 1025 q 290 984 274 1007 q 315 920 307 961 q 321 814 322 879 q 321 748 321 790 q 322 658 321 706 q 324 565 322 610 q 328 490 326 519 q 336 419 331 447 q 350 377 342 392 q 369 357 358 363 q 393 351 381 351 q 417 357 406 351 q 436 377 428 363 q 451 419 444 392 q 460 490 457 447 z "},"V":{"ha":831,"x_min":-10,"x_max":840,"o":"m 179 215 q 147 360 168 278 q 101 524 125 443 q 55 672 76 606 q 24 767 33 738 q -4 871 1 829 q -1 941 -10 913 q 29 986 7 969 q 86 1014 51 1003 q 146 1025 122 1025 q 221 989 190 1025 q 279 861 251 953 q 299 799 286 839 q 331 708 313 758 q 370 601 349 658 q 414 489 392 544 q 458 601 436 544 q 498 708 479 658 q 531 799 517 758 q 550 861 544 839 q 609 989 578 953 q 683 1025 640 1025 q 743 1014 707 1025 q 801 986 779 1003 q 832 941 824 969 q 835 871 840 913 q 807 767 829 829 q 776 672 797 738 q 731 524 754 606 q 685 360 707 443 q 651 215 663 278 q 619 99 639 142 q 572 34 600 56 q 505 6 543 13 q 415 0 467 0 q 326 6 364 0 q 259 34 288 13 q 211 99 231 56 q 179 215 192 142 z "},"W":{"ha":1275,"x_min":-17,"x_max":1292,"o":"m 143 215 q 117 362 132 278 q 84 531 101 446 q 49 693 67 617 q 14 817 31 769 q 4 947 -17 903 q 94 1014 25 992 q 158 1026 131 1026 q 226 999 199 1026 q 274 908 254 971 q 295 819 286 869 q 315 715 304 769 q 342 602 326 660 q 379 489 357 544 q 416 602 401 544 q 442 715 431 660 q 463 819 454 769 q 485 907 472 868 q 512 969 497 946 q 544 1003 526 992 q 585 1019 563 1015 q 638 1022 608 1022 q 690 1019 667 1022 q 731 1003 713 1015 q 763 969 749 992 q 789 908 776 946 q 811 819 801 869 q 832 715 821 769 q 858 602 843 660 q 894 489 872 544 q 932 602 917 544 q 958 715 947 660 q 979 819 969 769 q 1001 907 989 868 q 1049 999 1021 971 q 1117 1026 1076 1026 q 1181 1014 1146 1026 q 1271 947 1250 992 q 1261 817 1292 903 q 1226 693 1244 769 q 1191 531 1208 617 q 1158 362 1174 446 q 1132 215 1143 278 q 1100 99 1119 142 q 1052 34 1081 56 q 985 6 1024 13 q 896 0 947 0 q 806 6 844 0 q 740 34 768 13 q 692 99 711 56 q 660 215 672 142 q 650 272 656 242 q 638 336 644 303 q 625 272 631 303 q 615 215 619 242 q 583 99 603 142 q 536 34 564 56 q 470 6 508 13 q 381 0 432 0 q 291 6 329 0 q 224 34 253 13 q 176 99 196 56 q 143 215 156 142 z "},"X":{"ha":844,"x_min":-4,"x_max":847,"o":"m 490 143 q 460 215 478 169 q 422 294 443 260 q 384 215 401 260 q 353 143 367 169 q 269 26 308 56 q 193 -4 229 -4 q 167 -1 179 -4 q 142 6 154 1 q 40 62 75 26 q 1 144 6 97 q 22 248 -4 192 q 106 364 49 304 q 168 435 132 392 q 246 531 204 478 q 165 647 200 599 q 122 707 129 694 q 53 815 75 771 q 29 892 31 860 q 44 947 28 924 q 92 990 61 969 q 135 1015 115 1006 q 175 1024 156 1024 q 239 999 207 1024 q 308 917 271 974 q 353 852 324 893 q 422 760 383 811 q 491 852 461 811 q 536 917 521 893 q 606 999 574 974 q 669 1024 638 1024 q 709 1015 689 1024 q 753 990 729 1006 q 800 947 783 969 q 815 892 817 924 q 790 815 813 860 q 722 707 768 771 q 678 647 714 694 q 597 531 643 599 q 676 435 639 478 q 738 364 713 392 q 821 248 794 304 q 843 144 847 192 q 803 62 839 97 q 703 6 768 26 q 678 -1 690 1 q 650 -4 665 -4 q 574 26 614 -4 q 490 143 535 56 z "},"Y":{"ha":756,"x_min":-15,"x_max":771,"o":"m 678 707 q 599 596 640 651 q 518 485 558 540 q 526 389 521 438 q 538 292 531 340 q 547 146 550 203 q 525 56 544 89 q 469 12 506 24 q 379 0 433 0 q 288 12 325 0 q 232 56 251 24 q 210 146 213 89 q 219 292 207 203 q 231 388 226 339 q 239 483 236 436 q 156 594 197 539 q 78 707 115 650 q 10 817 32 772 q -13 892 -11 861 q 1 947 -15 924 q 47 990 17 969 q 91 1015 71 1006 q 131 1024 111 1024 q 194 999 163 1024 q 264 917 226 974 q 309 852 279 893 q 378 760 339 811 q 447 852 417 811 q 492 917 476 893 q 561 999 529 974 q 625 1024 593 1024 q 665 1015 644 1024 q 708 990 685 1006 q 755 947 739 969 q 769 892 771 924 q 744 817 767 861 q 678 707 722 772 z "},"Z":{"ha":686,"x_min":7,"x_max":682,"o":"m 390 326 l 453 326 q 484 333 471 326 q 509 347 497 339 q 532 360 521 354 q 556 367 543 367 q 576 363 567 367 q 615 334 596 354 q 649 286 633 314 q 673 225 664 258 q 682 157 682 192 q 674 99 682 128 q 642 49 665 71 q 578 14 619 28 q 472 0 538 0 l 211 0 q 110 27 157 0 q 35 99 63 54 q 7 203 7 143 q 46 326 7 263 l 293 732 q 306 764 304 751 q 300 784 307 776 q 281 795 293 792 q 251 799 268 799 q 178 788 217 799 q 124 765 139 776 q 90 753 106 753 q 56 769 71 753 q 32 807 42 785 q 17 854 22 829 q 13 897 13 879 q 26 948 13 925 q 77 988 40 971 q 178 1014 114 1004 q 342 1024 242 1024 q 525 1008 456 1024 q 626 963 594 993 q 656 888 658 933 q 624 785 654 843 l 390 326 z "},"a":{"ha":633,"x_min":10,"x_max":618,"o":"m 617 175 q 584 48 618 96 q 461 0 550 0 q 378 24 407 0 q 357 110 350 47 q 301 26 347 53 q 193 0 256 0 q 59 48 108 0 q 10 192 10 96 q 27 289 10 249 q 72 358 44 329 q 135 405 100 386 q 205 438 169 424 q 273 464 240 453 q 328 488 306 475 q 297 526 317 515 q 253 536 276 536 q 218 517 218 536 q 215 502 218 513 q 203 481 213 492 q 179 460 194 469 q 139 450 164 451 q 106 452 124 449 q 73 467 88 456 q 49 500 58 479 q 42 554 40 521 q 115 686 46 640 q 301 732 185 732 q 436 711 381 732 q 527 653 492 690 q 578 568 563 617 q 594 465 594 519 q 598 397 594 438 q 606 313 601 356 q 613 233 610 271 q 617 175 617 196 m 340 389 q 260 354 290 369 q 229 315 229 339 q 241 294 229 300 q 268 289 253 289 q 308 299 288 289 q 340 333 328 310 l 340 389 z "},"b":{"ha":742,"x_min":14,"x_max":728,"o":"m 25 251 q 36 345 32 293 q 44 453 40 397 q 49 564 47 508 q 52 668 51 619 q 53 754 53 717 q 53 813 53 792 q 59 919 51 878 q 83 983 67 960 q 124 1016 99 1007 q 183 1025 149 1025 q 242 1016 217 1025 q 282 984 267 1007 q 305 920 297 961 q 311 814 313 879 q 311 742 311 789 q 313 635 311 694 q 391 705 344 678 q 493 732 438 732 q 604 697 560 732 q 676 608 649 663 q 716 486 704 553 q 728 354 728 419 q 711 207 728 272 q 663 96 694 142 q 588 25 632 50 q 489 0 543 0 q 442 4 469 0 q 385 20 414 8 q 333 54 357 32 q 297 113 308 76 q 271 31 300 63 q 183 0 242 0 q 97 11 132 0 q 42 51 61 22 q 18 128 22 79 q 25 251 14 176 m 328 403 q 347 342 328 361 q 396 322 365 322 q 447 342 428 322 q 465 404 465 361 q 447 480 465 447 q 396 513 428 513 q 347 478 365 513 q 328 403 328 444 z "},"c":{"ha":653,"x_min":8,"x_max":660,"o":"m 414 489 q 403 519 415 501 q 365 536 392 536 q 327 523 344 536 q 297 490 310 510 q 278 445 285 469 q 272 399 272 421 q 291 341 272 360 q 340 322 310 322 q 369 330 354 322 q 424 371 385 338 q 449 387 433 378 q 488 396 464 396 q 549 382 513 396 q 631 316 603 360 q 640 201 660 272 q 602 122 629 158 q 535 58 575 85 q 440 15 494 31 q 319 0 386 0 q 196 17 253 0 q 97 72 139 35 q 32 167 56 108 q 8 307 8 225 q 33 466 8 389 q 103 602 57 543 q 217 697 150 661 q 369 732 285 732 q 458 720 417 732 q 528 687 499 708 q 575 635 558 665 q 592 567 592 604 q 576 503 592 528 q 542 465 561 479 q 504 444 522 450 q 479 436 486 438 q 434 435 449 429 q 415 451 419 440 q 413 472 411 461 q 414 489 414 483 z "},"d":{"ha":742,"x_min":13,"x_max":728,"o":"m 717 251 q 724 128 728 176 q 700 51 719 79 q 645 11 681 22 q 558 0 610 0 q 471 31 500 0 q 444 113 442 63 q 409 54 433 76 q 356 20 385 32 q 300 4 328 8 q 253 0 272 0 q 153 25 197 0 q 77 96 108 50 q 29 207 46 142 q 13 354 13 272 q 24 486 13 419 q 64 608 36 553 q 137 697 92 663 q 249 732 182 732 q 350 705 303 732 q 428 635 397 678 q 429 742 429 694 q 429 814 429 789 q 435 920 428 879 q 459 984 443 961 q 500 1016 475 1007 q 558 1025 525 1025 q 617 1016 592 1025 q 658 983 642 1007 q 683 919 675 960 q 689 813 690 878 q 689 754 689 792 q 690 668 689 717 q 692 564 690 619 q 698 453 694 508 q 706 345 701 397 q 717 251 711 293 m 414 403 q 395 478 414 444 q 344 513 376 513 q 295 480 314 513 q 276 404 276 447 q 295 342 276 361 q 344 322 314 322 q 395 342 376 322 q 414 403 414 361 z "},"e":{"ha":653,"x_min":8,"x_max":660,"o":"m 282 353 q 340 322 299 322 q 369 330 354 322 q 424 371 385 338 q 449 387 433 378 q 488 396 464 396 q 549 382 513 396 q 631 316 603 360 q 640 201 660 272 q 602 122 629 158 q 535 58 575 85 q 440 15 494 31 q 319 0 386 0 q 196 17 253 0 q 97 72 139 35 q 32 167 56 108 q 8 307 8 225 q 33 466 8 389 q 103 602 57 543 q 217 697 150 661 q 369 732 285 732 q 458 721 417 732 q 528 690 499 710 q 575 643 558 669 q 592 585 592 617 q 563 506 592 543 q 490 437 535 468 q 390 383 444 406 q 282 353 335 361 m 278 442 q 323 449 301 443 q 362 464 344 456 q 390 483 379 472 q 400 504 400 493 q 388 527 400 518 q 360 536 375 536 q 308 507 329 536 q 278 442 286 478 z "},"f":{"ha":490,"x_min":7,"x_max":547,"o":"m 7 631 q 26 696 7 671 q 82 729 46 721 l 82 740 q 99 867 81 814 q 152 955 117 919 q 238 1007 188 990 q 353 1024 289 1024 q 499 988 450 1024 q 547 900 547 953 q 538 855 547 878 q 513 815 529 832 q 474 791 497 799 q 424 790 451 783 q 376 785 396 797 q 347 732 357 772 l 394 732 q 468 703 440 732 q 496 628 496 675 q 468 554 496 582 q 394 526 440 526 l 343 526 q 352 386 346 461 q 367 251 358 311 q 374 128 378 176 q 350 51 369 79 q 296 11 331 22 q 210 0 261 0 q 123 11 158 0 q 69 51 88 22 q 46 128 50 79 q 53 251 42 176 q 67 388 61 314 q 78 531 74 461 q 26 565 44 540 q 7 628 7 590 l 7 631 z "},"g":{"ha":700,"x_min":7,"x_max":675,"o":"m 674 518 q 672 406 672 469 q 669 270 672 342 q 660 125 667 199 q 638 -17 653 51 q 597 -144 622 -85 q 533 -243 572 -203 q 466 -294 503 -275 q 389 -322 429 -312 q 306 -334 349 -332 q 222 -336 264 -336 q 77 -291 124 -333 q 15 -185 31 -249 q 11 -117 7 -146 q 28 -69 15 -89 q 58 -39 40 -50 q 92 -24 75 -28 q 156 -23 115 -17 q 244 -51 196 -29 q 318 -69 289 -69 q 366 -53 350 -69 q 390 -18 382 -37 q 395 17 393 -1 q 399 54 397 35 q 333 13 369 26 q 256 0 296 0 q 155 25 200 0 q 78 96 110 50 q 29 207 46 142 q 13 354 13 272 q 24 486 13 419 q 64 608 36 553 q 136 697 92 663 q 247 732 181 732 q 349 704 306 732 q 422 631 392 676 q 463 712 433 692 q 543 732 493 732 q 603 723 578 732 q 644 690 628 714 q 667 625 660 667 q 674 518 675 583 m 414 403 q 395 478 414 444 q 344 513 376 513 q 295 480 314 513 q 276 404 276 447 q 295 342 276 361 q 344 322 314 322 q 395 342 376 322 q 414 403 414 361 z "},"h":{"ha":749,"x_min":14,"x_max":738,"o":"m 425 249 q 440 353 436 307 q 444 418 444 399 q 427 483 444 463 q 385 503 410 503 q 363 498 374 503 q 343 480 351 493 q 330 442 335 467 q 326 378 325 418 q 331 311 328 343 q 339 251 335 279 q 346 128 350 176 q 323 51 342 79 q 269 11 304 22 q 183 0 235 0 q 97 11 132 0 q 42 51 61 22 q 18 128 22 79 q 25 251 14 176 q 36 345 32 293 q 44 453 40 397 q 49 564 47 508 q 52 668 51 619 q 53 754 53 717 q 53 813 53 792 q 59 919 51 878 q 83 983 67 960 q 124 1016 99 1007 q 183 1025 149 1025 q 242 1016 217 1025 q 282 984 267 1007 q 305 920 297 961 q 311 814 313 879 q 311 752 311 792 q 313 661 311 713 q 356 697 333 683 q 402 719 379 711 q 448 729 425 726 q 492 732 471 732 q 652 667 600 732 q 701 485 704 603 q 702 438 701 467 q 706 375 703 410 q 713 303 708 340 q 724 229 717 265 q 735 119 738 163 q 713 49 732 75 q 660 11 694 22 q 574 0 625 0 q 487 11 522 0 q 433 51 451 22 q 413 127 414 79 q 425 249 411 175 z "},"i":{"ha":353,"x_min":11,"x_max":340,"o":"m 33 903 q 72 991 33 958 q 176 1024 111 1024 q 280 991 240 1024 q 319 903 319 958 q 280 816 319 849 q 176 783 240 783 q 72 816 111 783 q 33 903 33 849 m 25 229 q 44 377 40 301 q 47 506 49 453 q 53 619 46 575 q 77 689 61 664 q 118 723 93 714 q 176 732 143 732 q 236 723 211 732 q 276 689 261 714 q 299 621 292 664 q 306 508 307 578 q 308 378 304 454 q 328 229 313 301 q 338 119 340 163 q 316 49 335 75 q 263 11 297 22 q 176 0 228 0 q 90 11 125 0 q 35 49 54 22 q 14 119 17 75 q 25 229 11 163 z "},"j":{"ha":331,"x_min":-210,"x_max":307,"o":"m 18 903 q 57 991 18 958 q 161 1024 96 1024 q 264 991 225 1024 q 303 903 303 958 q 264 816 303 849 q 161 783 225 783 q 57 816 96 783 q 18 903 18 849 m -12 -32 q 10 -15 1 -39 q 25 51 19 10 q 33 142 31 92 q 35 237 35 192 q 36 316 36 282 q 36 357 36 350 q 40 556 33 482 q 62 669 46 631 q 103 720 78 708 q 161 732 128 732 q 221 724 196 732 q 261 693 246 715 q 284 634 276 671 q 290 540 292 597 q 292 460 290 501 q 298 373 294 419 q 304 274 301 326 q 307 157 307 221 q 294 -46 307 46 q 243 -203 281 -137 q 136 -303 206 -268 q -46 -335 67 -337 q -146 -298 -106 -333 q -201 -199 -186 -262 q -206 -129 -210 -160 q -189 -76 -201 -99 q -159 -41 -176 -54 q -125 -24 -142 -28 q -67 -21 -101 -17 q -12 -32 -32 -25 z "},"k":{"ha":758,"x_min":14,"x_max":760,"o":"m 25 251 q 36 345 32 293 q 44 453 40 397 q 49 564 47 508 q 52 668 51 619 q 53 754 53 717 q 53 813 53 792 q 59 919 51 878 q 83 983 67 960 q 124 1016 99 1007 q 183 1025 149 1025 q 242 1016 217 1025 q 282 984 267 1007 q 305 920 297 961 q 311 814 313 879 q 311 713 310 782 q 315 560 313 644 q 364 628 339 596 q 417 683 389 660 q 478 720 446 707 q 546 733 510 733 q 640 710 593 733 q 708 656 690 686 q 715 597 726 626 q 665 539 704 567 q 558 490 625 511 q 512 472 533 481 q 471 453 490 464 q 565 361 513 404 q 657 281 617 318 q 724 210 697 244 q 755 142 750 175 q 739 79 760 110 q 664 21 718 49 q 569 -6 611 -6 q 443 86 496 -6 q 396 194 418 131 q 349 332 374 258 q 332 306 338 318 q 335 278 333 292 q 339 251 336 264 q 346 128 350 176 q 323 51 342 79 q 269 11 304 22 q 183 0 235 0 q 97 11 132 0 q 42 51 61 22 q 18 128 22 79 q 25 251 14 176 z "},"l":{"ha":365,"x_min":14,"x_max":350,"o":"m 25 251 q 36 345 32 293 q 44 453 40 397 q 49 564 47 508 q 52 668 51 619 q 53 754 53 717 q 53 813 53 792 q 59 919 51 878 q 83 983 67 960 q 124 1016 99 1007 q 183 1025 149 1025 q 242 1016 217 1025 q 282 984 267 1007 q 305 920 297 961 q 311 814 313 879 q 311 755 311 793 q 312 668 311 717 q 315 564 313 619 q 320 453 317 508 q 328 345 324 397 q 339 251 332 293 q 346 128 350 176 q 323 51 342 79 q 269 11 304 22 q 183 0 235 0 q 97 11 132 0 q 42 51 61 22 q 18 128 22 79 q 25 251 14 176 z "},"m":{"ha":1108,"x_min":11,"x_max":1097,"o":"m 25 229 q 44 377 40 301 q 47 506 49 453 q 53 619 46 575 q 77 689 61 664 q 118 723 93 714 q 176 732 143 732 q 248 717 219 732 q 292 657 276 701 q 382 717 332 703 q 474 732 432 732 q 585 707 540 732 q 654 638 629 682 q 700 685 675 667 q 751 715 725 704 q 803 728 776 725 q 851 732 829 732 q 1013 667 960 732 q 1063 485 1065 603 q 1063 438 1063 467 q 1066 375 1064 410 q 1072 303 1068 340 q 1083 229 1076 265 q 1094 119 1097 163 q 1073 49 1092 75 q 1019 11 1054 22 q 933 0 985 0 q 847 11 882 0 q 793 51 811 22 q 773 127 775 79 q 786 249 771 175 q 801 353 797 307 q 804 418 804 399 q 787 483 804 463 q 744 503 769 503 q 724 499 735 503 q 706 485 714 496 q 692 456 697 475 q 686 407 688 438 q 693 320 689 367 q 707 229 697 274 q 717 119 719 163 q 695 49 714 75 q 642 11 676 22 q 556 0 607 0 q 469 11 504 0 q 415 51 433 22 q 395 127 397 79 q 408 249 393 175 q 424 353 419 307 q 428 418 428 399 q 410 483 428 463 q 367 503 393 503 q 345 499 356 503 q 326 482 335 494 q 313 448 318 469 q 308 390 308 426 q 328 229 313 310 q 338 119 340 163 q 316 49 335 75 q 263 11 297 22 q 176 0 228 0 q 90 11 125 0 q 35 49 54 22 q 14 119 17 75 q 25 229 11 163 z "},"n":{"ha":731,"x_min":11,"x_max":719,"o":"m 25 229 q 44 377 40 301 q 47 506 49 453 q 53 619 46 575 q 77 689 61 664 q 118 723 93 714 q 176 732 143 732 q 248 717 219 732 q 292 657 276 701 q 382 717 332 703 q 474 732 432 732 q 635 667 582 732 q 685 485 688 603 q 685 438 685 467 q 688 375 686 410 q 695 303 690 340 q 707 229 700 265 q 717 119 719 163 q 695 49 714 75 q 642 11 676 22 q 556 0 607 0 q 469 11 504 0 q 415 51 433 22 q 395 127 397 79 q 408 249 393 175 q 424 353 419 307 q 428 418 428 399 q 410 483 428 463 q 367 503 393 503 q 345 499 356 503 q 326 482 335 494 q 313 448 318 469 q 308 390 308 426 q 328 229 313 310 q 338 119 340 163 q 316 49 335 75 q 263 11 297 22 q 176 0 228 0 q 90 11 125 0 q 35 49 54 22 q 14 119 17 75 q 25 229 11 163 z "},"o":{"ha":682,"x_min":8,"x_max":672,"o":"m 8 307 q 32 466 8 389 q 99 602 56 543 q 204 697 143 661 q 340 732 265 732 q 476 697 415 732 q 581 602 538 661 q 649 466 625 543 q 672 307 672 389 q 649 167 672 225 q 581 72 625 108 q 476 17 538 35 q 340 0 415 0 q 204 17 265 0 q 99 72 143 35 q 32 167 56 108 q 8 307 8 225 m 272 403 q 291 342 272 361 q 340 322 310 322 q 391 342 372 322 q 410 404 410 361 q 391 480 410 447 q 340 513 372 513 q 291 478 310 513 q 272 403 272 444 z "},"p":{"ha":713,"x_min":0,"x_max":700,"o":"m 11 -43 q 26 105 21 21 q 35 270 32 189 q 38 419 38 351 q 39 518 39 488 q 45 625 38 583 q 69 690 53 667 q 110 723 85 714 q 169 732 135 732 q 249 712 219 732 q 290 631 279 692 q 363 704 319 676 q 464 732 406 732 q 576 697 531 732 q 649 608 621 663 q 688 486 676 553 q 700 354 700 419 q 683 207 700 272 q 635 96 667 142 q 558 25 603 50 q 457 0 514 0 q 380 13 417 0 q 314 54 343 26 q 319 3 317 28 q 325 -43 322 -21 q 332 -167 336 -118 q 309 -244 328 -215 q 256 -283 290 -272 q 169 -294 221 -294 q 83 -283 118 -294 q 28 -244 47 -272 q 4 -167 8 -215 q 11 -43 0 -118 m 299 403 q 317 342 299 361 q 368 322 336 322 q 417 342 399 322 q 436 404 436 361 q 417 480 436 447 q 368 513 399 513 q 317 478 336 513 q 299 403 299 444 z "},"q":{"ha":713,"x_min":13,"x_max":713,"o":"m 701 -43 q 708 -167 713 -118 q 685 -244 704 -215 q 630 -283 665 -272 q 543 -294 594 -294 q 457 -283 492 -294 q 403 -244 422 -272 q 381 -167 385 -215 q 388 -43 376 -118 q 393 3 390 -21 q 399 54 396 28 q 333 13 369 26 q 256 0 296 0 q 155 25 200 0 q 78 96 110 50 q 29 207 46 142 q 13 354 13 272 q 24 486 13 419 q 64 608 36 553 q 137 697 92 663 q 249 732 182 732 q 350 704 307 732 q 422 631 393 676 q 463 712 433 692 q 543 732 493 732 q 603 723 578 732 q 644 690 628 714 q 667 625 660 667 q 674 518 675 583 q 674 419 674 488 q 678 270 675 351 q 686 105 681 189 q 701 -43 692 21 m 414 403 q 395 478 414 444 q 344 513 376 513 q 295 480 314 513 q 276 404 276 447 q 295 342 276 361 q 344 322 314 322 q 395 342 376 322 q 414 403 414 361 z "},"r":{"ha":579,"x_min":11,"x_max":582,"o":"m 582 586 q 569 522 582 550 q 535 476 556 494 q 491 448 515 457 q 444 439 467 439 q 406 449 419 439 q 383 471 392 458 q 367 493 374 483 q 351 503 361 503 q 338 499 346 503 q 324 482 331 494 q 313 448 318 469 q 308 390 308 426 q 328 229 313 310 q 338 119 340 163 q 316 49 335 75 q 263 11 297 22 q 176 0 228 0 q 90 11 125 0 q 35 49 54 22 q 14 119 17 75 q 25 229 11 163 q 44 377 40 301 q 47 506 49 453 q 53 619 46 575 q 77 689 61 664 q 118 723 93 714 q 176 732 143 732 q 248 717 219 732 q 292 657 276 701 q 326 695 307 681 q 363 718 344 710 q 400 729 382 726 q 432 732 418 732 q 488 723 461 732 q 536 695 515 714 q 569 649 557 676 q 582 586 582 622 z "},"s":{"ha":613,"x_min":-10,"x_max":603,"o":"m 603 215 q 576 114 603 156 q 505 47 549 72 q 408 11 461 22 q 300 0 354 0 q 111 43 189 0 q 10 174 33 86 q 18 288 -10 244 q 100 354 46 331 q 161 368 136 368 q 199 360 185 368 q 219 347 213 353 q 284 303 263 310 q 308 297 306 297 q 342 297 326 297 q 358 308 358 297 q 336 332 358 321 q 281 355 314 343 q 208 382 247 367 q 136 417 169 397 q 81 466 103 438 q 58 533 58 494 q 88 616 58 579 q 164 678 118 653 q 264 718 210 704 q 367 732 318 732 q 450 721 411 732 q 518 689 489 710 q 564 640 547 668 q 581 576 581 611 q 567 520 581 543 q 533 483 553 497 q 494 461 514 468 q 463 453 475 454 q 419 463 439 450 q 401 500 400 476 q 394 527 404 518 q 368 536 383 536 q 335 519 344 536 q 326 490 326 501 q 347 456 326 469 q 398 431 367 443 q 465 403 429 418 q 531 364 500 388 q 583 304 563 340 q 603 215 603 268 z "},"t":{"ha":536,"x_min":-3,"x_max":529,"o":"m -3 631 q 22 704 -3 676 q 83 732 47 732 l 99 732 q 100 808 99 772 q 113 871 101 843 q 151 915 125 899 q 226 931 178 931 q 303 915 276 931 q 341 872 329 899 q 354 808 353 844 q 356 732 356 772 l 411 732 q 485 703 457 732 q 513 628 513 675 q 485 554 513 582 q 411 526 457 526 l 346 526 q 346 444 344 483 q 352 375 347 406 q 367 327 357 344 q 390 311 376 310 q 409 316 399 313 q 439 313 419 319 q 476 294 458 308 q 508 258 494 281 q 525 206 521 236 q 521 136 529 175 q 462 36 506 72 q 335 0 418 0 q 211 31 260 0 q 133 116 163 61 q 93 249 104 171 q 82 422 82 326 q 83 477 82 451 q 85 526 83 503 l 83 526 q 22 554 47 526 q -3 628 -3 582 l -3 631 z "},"u":{"ha":711,"x_min":18,"x_max":699,"o":"m 18 249 q 27 384 18 307 q 35 539 36 461 q 41 633 33 596 q 65 693 49 671 q 106 724 81 715 q 164 732 131 732 q 265 696 233 732 q 293 564 296 660 q 287 469 293 517 q 281 385 281 422 q 291 326 281 349 q 332 303 301 303 q 351 305 339 303 q 376 317 364 307 q 399 349 389 328 q 410 406 408 369 q 408 459 411 433 q 404 506 404 485 q 410 619 403 575 q 435 689 418 664 q 476 723 451 714 q 535 732 501 732 q 593 723 568 732 q 634 689 618 714 q 658 621 650 664 q 664 508 665 578 q 666 378 661 454 q 685 229 671 301 q 697 119 699 163 q 678 49 694 75 q 631 11 661 22 q 557 0 600 0 q 490 9 515 0 q 449 35 464 18 q 428 76 433 51 q 422 131 422 100 q 388 73 410 97 q 338 32 365 49 q 280 8 311 15 q 219 0 249 0 q 152 10 188 0 q 87 49 117 21 q 38 126 57 78 q 18 249 18 174 z "},"v":{"ha":700,"x_min":-6,"x_max":704,"o":"m 121 185 q 106 260 115 221 q 84 337 96 299 q 60 410 72 375 q 36 471 47 444 q 3 574 11 532 q 1 644 -6 617 q 28 690 8 672 q 81 719 49 707 q 113 730 97 726 q 142 733 128 733 q 210 703 181 733 q 264 600 239 672 q 287 528 276 567 q 308 451 297 489 q 328 379 318 413 q 350 322 339 346 q 371 378 361 346 q 390 445 381 411 q 406 508 399 479 q 418 553 413 538 q 488 693 454 654 q 563 732 522 732 q 619 719 589 732 q 672 690 651 707 q 698 644 692 672 q 696 574 704 617 q 663 471 688 532 q 640 410 651 444 q 616 337 628 375 q 595 260 604 299 q 579 185 586 221 q 550 81 568 118 q 505 26 532 43 q 440 4 478 8 q 350 0 401 0 q 260 4 299 0 q 195 26 222 8 q 150 81 168 43 q 121 185 132 118 z "},"w":{"ha":1060,"x_min":-1,"x_max":1060,"o":"m 96 199 q 73 344 85 261 q 28 511 61 426 q 3 591 8 557 q 7 649 -1 625 q 35 690 15 674 q 88 719 56 707 q 121 730 106 726 q 151 733 136 733 q 215 708 188 733 q 263 625 243 683 q 285 539 278 583 q 299 454 293 494 q 311 380 306 414 q 328 322 317 346 q 347 380 339 346 q 363 453 354 414 q 381 533 371 492 q 404 613 390 575 q 431 674 417 650 q 461 710 446 697 q 494 728 476 724 q 529 732 511 732 q 565 728 549 732 q 598 710 582 724 q 628 674 614 697 q 656 613 642 650 q 678 533 669 575 q 696 453 688 492 q 712 380 704 414 q 731 322 719 346 q 747 380 742 346 q 759 454 753 414 q 773 539 765 494 q 796 625 781 583 q 843 708 815 683 q 907 733 871 733 q 938 730 922 733 q 971 719 953 726 q 1023 690 1003 707 q 1051 649 1043 674 q 1055 591 1060 625 q 1031 511 1050 557 q 985 344 997 426 q 963 199 974 261 q 932 87 950 126 q 886 28 914 47 q 820 4 858 8 q 731 0 782 0 q 657 26 692 0 q 594 97 622 53 q 549 200 567 142 q 525 321 531 258 q 507 215 524 271 q 464 110 490 158 q 402 31 438 63 q 328 0 367 0 q 238 4 276 0 q 173 28 200 8 q 127 87 146 47 q 96 199 108 126 z "},"x":{"ha":715,"x_min":-6,"x_max":721,"o":"m 357 214 q 265 47 311 94 q 174 0 218 0 q 123 13 149 0 q 74 44 97 25 q 3 175 -6 107 q 113 326 13 243 q 185 394 150 358 q 165 420 175 408 q 146 443 154 432 q 81 532 103 493 q 53 601 58 571 q 59 656 47 632 q 97 703 71 681 q 165 732 133 732 q 246 695 201 732 q 357 565 290 658 q 465 695 419 658 q 547 732 511 732 q 617 701 582 732 q 655 655 643 679 q 662 601 667 631 q 634 532 657 571 q 568 443 611 493 q 549 420 560 432 q 529 394 539 408 q 565 360 547 378 q 603 328 583 343 q 712 175 703 243 q 642 44 721 107 q 592 13 618 25 q 540 0 567 0 q 449 47 496 0 q 357 214 403 94 z "},"y":{"ha":689,"x_min":-57,"x_max":689,"o":"m 247 28 q 217 72 236 40 q 176 144 199 103 q 131 233 154 186 q 86 324 107 279 q 49 408 65 369 q 26 471 33 447 q 2 581 7 536 q 6 653 -3 625 q 35 698 14 682 q 89 722 56 714 q 136 729 117 729 q 215 688 182 729 q 276 538 249 646 q 305 439 288 494 q 346 326 322 383 q 364 374 354 347 q 383 428 374 400 q 401 485 393 457 q 415 538 410 514 q 476 688 443 646 q 556 729 508 729 q 603 722 575 729 q 656 697 636 714 q 683 644 676 681 q 679 549 689 608 q 642 394 669 489 q 601 251 621 325 q 556 103 582 176 q 495 -43 531 29 q 406 -181 460 -115 q 326 -260 365 -229 q 251 -310 288 -292 q 183 -335 215 -328 q 124 -342 150 -342 q 79 -337 99 -342 q 49 -329 60 -333 q -6 -292 18 -318 q -44 -233 -31 -265 q -56 -165 -57 -200 q -37 -101 -56 -131 q 22 -51 -18 -71 q 126 -28 61 -31 q 147 -26 133 -28 q 176 -19 160 -25 q 211 -3 193 -14 q 247 28 229 8 z "},"z":{"ha":601,"x_min":10,"x_max":593,"o":"m 244 521 q 217 514 229 521 q 193 499 204 507 q 156 482 179 492 q 101 475 132 472 q 81 478 93 475 q 58 492 69 482 q 40 518 47 501 q 32 563 32 535 q 49 634 32 603 q 94 687 65 665 q 163 720 124 708 q 246 732 201 732 l 457 732 q 528 703 501 732 q 554 624 554 675 q 532 531 554 579 q 451 435 510 482 q 402 399 429 417 q 352 364 375 381 q 314 333 329 347 q 299 308 299 319 q 312 297 299 297 q 332 297 325 297 l 364 297 q 394 303 381 297 q 419 317 407 310 q 443 330 431 324 q 469 336 456 336 q 496 331 483 336 q 529 308 513 324 q 560 272 546 293 q 584 221 575 250 q 593 157 593 192 q 585 99 593 128 q 553 49 576 71 q 490 14 531 28 q 383 0 449 0 l 204 0 q 103 10 142 0 q 44 38 65 19 q 17 80 24 56 q 10 135 10 104 q 42 276 10 217 q 120 377 74 335 q 218 448 167 419 q 307 496 269 476 q 325 514 326 507 q 301 521 324 521 l 244 521 z "},"\u0000":{"ha":0,"x_min":0,"x_max":0,"o":""}}}
